<?xml version="1.0" encoding="UTF-8" standalone="no"?><svg xmlns="http://www.w3.org/2000/svg" xmlns:xlink="http://www.w3.org/1999/xlink" contentStyleType="text/css" height="220px" preserveAspectRatio="none" style="width:405px;height:220px;background:#FFFFFF;" version="1.1" viewBox="0 0 405 220" width="405px" zoomAndPan="magnify"><defs/><g><!--MD5=[728d23d58e22fa55ea5a0544ed140874]
cluster net.dummy--><g id="cluster_net.dummy"><path d="M8.5,6 L89.5,6 A3.75,3.75 0 0 1 92,8.5 L99,28.4883 L123.5,28.4883 A2.5,2.5 0 0 1 126,30.9883 L126,210.5 A2.5,2.5 0 0 1 123.5,213 L8.5,213 A2.5,2.5 0 0 1 6,210.5 L6,8.5 A2.5,2.5 0 0 1 8.5,6 " fill="#DDDDDD" style="stroke:#000000;stroke-width:1.5;"/><line style="stroke:#000000;stroke-width:1.5;" x1="6" x2="99" y1="28.4883" y2="28.4883"/><text fill="#000000" font-family="sans-serif" font-size="14" font-weight="bold" lengthAdjust="spacing" textLength="80" x="10" y="21.5352">net.dummy</text></g><!--MD5=[33e59a955278c32565a5bf6f302dc15e]
cluster net.foo--><g id="cluster_net.foo"><path d="M152.5,114 L203.5,114 A3.75,3.75 0 0 1 206,116.5 L213,136.4883 L259.5,136.4883 A2.5,2.5 0 0 1 262,138.9883 L262,210.5 A2.5,2.5 0 0 1 259.5,213 L152.5,213 A2.5,2.5 0 0 1 150,210.5 L150,116.5 A2.5,2.5 0 0 1 152.5,114 " style="stroke:#000000;stroke-width:1.5;fill:none;"/><line style="stroke:#000000;stroke-width:1.5;fill:none;" x1="150" x2="213" y1="136.4883" y2="136.4883"/><text fill="#000000" font-family="sans-serif" font-size="14" font-weight="bold" lengthAdjust="spacing" textLength="50" x="154" y="129.5352">net.foo</text></g><!--MD5=[a192a6f29c441cea5ef200ac5f138a29]
cluster net.unused--><g id="cluster_net.unused"><path d="M288.5,114 L367.5,114 A3.75,3.75 0 0 1 370,116.5 L377,136.4883 L395.5,136.4883 A2.5,2.5 0 0 1 398,138.9883 L398,210.5 A2.5,2.5 0 0 1 395.5,213 L288.5,213 A2.5,2.5 0 0 1 286,210.5 L286,116.5 A2.5,2.5 0 0 1 288.5,114 " style="stroke:#000000;stroke-width:1.5;fill:none;"/><line style="stroke:#000000;stroke-width:1.5;fill:none;" x1="286" x2="377" y1="136.4883" y2="136.4883"/><text fill="#000000" font-family="sans-serif" font-size="14" font-weight="bold" lengthAdjust="spacing" textLength="78" x="290" y="129.5352">net.unused</text></g><!--MD5=[cb3a15f9f15e1ea33d1c370015e332c8]
class net.dummy.Person--><g id="elem_net.dummy.Person"><rect fill="#F1F1F1" height="48" id="net.dummy.Person" rx="2.5" ry="2.5" style="stroke:#181818;stroke-width:0.5;" width="79" x="30.5" y="149"/><ellipse cx="45.5" cy="165" fill="#ADD1B2" rx="11" ry="11" style="stroke:#181818;stroke-width:1.0;"/><path d="M47.9731,171.1431 Q47.3921,171.4419 46.7529,171.5913 Q46.1138,171.7407 45.4082,171.7407 Q42.9014,171.7407 41.5815,170.0889 Q40.2617,168.437 40.2617,165.3159 Q40.2617,162.1865 41.5815,160.5347 Q42.9014,158.8828 45.4082,158.8828 Q46.1138,158.8828 46.7612,159.0322 Q47.4087,159.1816 47.9731,159.4805 L47.9731,162.2031 Q47.3423,161.6221 46.7488,161.3523 Q46.1553,161.0825 45.5244,161.0825 Q44.1797,161.0825 43.4949,162.1492 Q42.8101,163.2158 42.8101,165.3159 Q42.8101,167.4077 43.4949,168.4744 Q44.1797,169.541 45.5244,169.541 Q46.1553,169.541 46.7488,169.2712 Q47.3423,169.0015 47.9731,168.4204 Z " fill="#000000"/><text fill="#000000" font-family="sans-serif" font-size="14" lengthAdjust="spacing" textLength="47" x="59.5" y="170.291">Person</text><line style="stroke:#181818;stroke-width:0.5;" x1="31.5" x2="108.5" y1="181" y2="181"/><line style="stroke:#181818;stroke-width:0.5;" x1="31.5" x2="108.5" y1="189" y2="189"/></g><!--MD5=[8ac4e197c3b047d8b0ccbf03414837ae]
class net.dummy.Meeting--><g id="elem_net.dummy.Meeting"><rect fill="#F1F1F1" height="48" id="net.dummy.Meeting" rx="2.5" ry="2.5" style="stroke:#181818;stroke-width:0.5;" width="87" x="22.5" y="41"/><ellipse cx="37.5" cy="57" fill="#ADD1B2" rx="11" ry="11" style="stroke:#181818;stroke-width:1.0;"/><path d="M39.9731,63.1431 Q39.3921,63.4419 38.7529,63.5913 Q38.1138,63.7407 37.4082,63.7407 Q34.9014,63.7407 33.5815,62.0889 Q32.2617,60.437 32.2617,57.3159 Q32.2617,54.1865 33.5815,52.5347 Q34.9014,50.8828 37.4082,50.8828 Q38.1138,50.8828 38.7612,51.0322 Q39.4087,51.1816 39.9731,51.4805 L39.9731,54.2031 Q39.3423,53.6221 38.7488,53.3523 Q38.1553,53.0825 37.5244,53.0825 Q36.1797,53.0825 35.4949,54.1492 Q34.8101,55.2158 34.8101,57.3159 Q34.8101,59.4077 35.4949,60.4744 Q36.1797,61.541 37.5244,61.541 Q38.1553,61.541 38.7488,61.2712 Q39.3423,61.0015 39.9731,60.4204 Z " fill="#000000"/><text fill="#000000" font-family="sans-serif" font-size="14" lengthAdjust="spacing" textLength="55" x="51.5" y="62.291">Meeting</text><line style="stroke:#181818;stroke-width:0.5;" x1="23.5" x2="108.5" y1="73" y2="73"/><line style="stroke:#181818;stroke-width:0.5;" x1="23.5" x2="108.5" y1="81" y2="81"/></g><!--MD5=[39b7869a7bbdf1e166c12fc90d8f21cb]
class net.foo.Person--><g id="elem_net.foo.Person"><rect fill="#F1F1F1" height="48" id="net.foo.Person" rx="2.5" ry="2.5" style="stroke:#181818;stroke-width:0.5;" width="79" x="166.5" y="149"/><ellipse cx="181.5" cy="165" fill="#ADD1B2" rx="11" ry="11" style="stroke:#181818;stroke-width:1.0;"/><path d="M183.9731,171.1431 Q183.3921,171.4419 182.7529,171.5913 Q182.1138,171.7407 181.4082,171.7407 Q178.9014,171.7407 177.5815,170.0889 Q176.2617,168.437 176.2617,165.3159 Q176.2617,162.1865 177.5815,160.5347 Q178.9014,158.8828 181.4082,158.8828 Q182.1138,158.8828 182.7612,159.0322 Q183.4087,159.1816 183.9731,159.4805 L183.9731,162.2031 Q183.3423,161.6221 182.7488,161.3523 Q182.1553,161.0825 181.5244,161.0825 Q180.1797,161.0825 179.4949,162.1492 Q178.8101,163.2158 178.8101,165.3159 Q178.8101,167.4077 179.4949,168.4744 Q180.1797,169.541 181.5244,169.541 Q182.1553,169.541 182.7488,169.2712 Q183.3423,169.0015 183.9731,168.4204 Z " fill="#000000"/><text fill="#000000" font-family="sans-serif" font-size="14" lengthAdjust="spacing" textLength="47" x="195.5" y="170.291">Person</text><line style="stroke:#181818;stroke-width:0.5;" x1="167.5" x2="244.5" y1="181" y2="181"/><line style="stroke:#181818;stroke-width:0.5;" x1="167.5" x2="244.5" y1="189" y2="189"/></g><!--MD5=[5f30d223f747d8ac33b5eb84f5743c2a]
class net.unused.Person--><g id="elem_net.unused.Person"><rect fill="#F1F1F1" height="48" id="net.unused.Person" rx="2.5" ry="2.5" style="stroke:#181818;stroke-width:0.5;" width="79" x="302.5" y="149"/><ellipse cx="317.5" cy="165" fill="#ADD1B2" rx="11" ry="11" style="stroke:#181818;stroke-width:1.0;"/><path d="M319.9731,171.1431 Q319.3921,171.4419 318.7529,171.5913 Q318.1138,171.7407 317.4082,171.7407 Q314.9014,171.7407 313.5815,170.0889 Q312.2617,168.437 312.2617,165.3159 Q312.2617,162.1865 313.5815,160.5347 Q314.9014,158.8828 317.4082,158.8828 Q318.1138,158.8828 318.7612,159.0322 Q319.4087,159.1816 319.9731,159.4805 L319.9731,162.2031 Q319.3423,161.6221 318.7488,161.3523 Q318.1553,161.0825 317.5244,161.0825 Q316.1797,161.0825 315.4949,162.1492 Q314.8101,163.2158 314.8101,165.3159 Q314.8101,167.4077 315.4949,168.4744 Q316.1797,169.541 317.5244,169.541 Q318.1553,169.541 318.7488,169.2712 Q319.3423,169.0015 319.9731,168.4204 Z " fill="#000000"/><text fill="#000000" font-family="sans-serif" font-size="14" lengthAdjust="spacing" textLength="47" x="331.5" y="170.291">Person</text><line style="stroke:#181818;stroke-width:0.5;" x1="303.5" x2="380.5" y1="181" y2="181"/><line style="stroke:#181818;stroke-width:0.5;" x1="303.5" x2="380.5" y1="189" y2="189"/></g><!--MD5=[8e57f1f895cc705ad5645d1ac73dc0a2]
class BaseClass--><g id="elem_BaseClass"><rect codeLine="7" fill="#F1F1F1" height="48" id="BaseClass" rx="2.5" ry="2.5" style="stroke:#181818;stroke-width:0.5;" width="99" x="150.5" y="41"/><ellipse cx="165.5" cy="57" fill="#ADD1B2" rx="11" ry="11" style="stroke:#181818;stroke-width:1.0;"/><path d="M167.9731,63.1431 Q167.3921,63.4419 166.7529,63.5913 Q166.1138,63.7407 165.4082,63.7407 Q162.9014,63.7407 161.5815,62.0889 Q160.2617,60.437 160.2617,57.3159 Q160.2617,54.1865 161.5815,52.5347 Q162.9014,50.8828 165.4082,50.8828 Q166.1138,50.8828 166.7612,51.0322 Q167.4087,51.1816 167.9731,51.4805 L167.9731,54.2031 Q167.3423,53.6221 166.7488,53.3523 Q166.1553,53.0825 165.5244,53.0825 Q164.1797,53.0825 163.4949,54.1492 Q162.8101,55.2158 162.8101,57.3159 Q162.8101,59.4077 163.4949,60.4744 Q164.1797,61.541 165.5244,61.541 Q166.1553,61.541 166.7488,61.2712 Q167.3423,61.0015 167.9731,60.4204 Z " fill="#000000"/><text fill="#000000" font-family="sans-serif" font-size="14" lengthAdjust="spacing" textLength="67" x="179.5" y="62.291">BaseClass</text><line style="stroke:#181818;stroke-width:0.5;" x1="151.5" x2="248.5" y1="73" y2="73"/><line style="stroke:#181818;stroke-width:0.5;" x1="151.5" x2="248.5" y1="81" y2="81"/></g><!--MD5=[38d283ab138c7dee77115f9fbc859330]
reverse link BaseClass to net.dummy.Person--><g id="link_BaseClass_net.dummy.Person"><path codeLine="10" d="M154.11,102.67 C152.72,103.79 151.35,104.9 150,106 C132.67,120.08 113.36,136 98.05,148.68 " fill="none" id="BaseClass-backto-net.dummy.Person" style="stroke:#181818;stroke-width:1.0;"/><polygon fill="none" points="149.44,97.44,169.41,90.35,158.22,108.34,149.44,97.44" style="stroke:#181818;stroke-width:1.0;"/></g><!--MD5=[3aad075c01a5f1f4921d0fd2481fc4e0]
reverse link net.dummy.Meeting to net.dummy.Person--><g id="link_net.dummy.Meeting_net.dummy.Person"><path codeLine="11" d="M67.42,103.54 C67.99,118.63 68.62,135.55 69.12,148.79 " fill="none" id="net.dummy.Meeting-backto-net.dummy.Person" style="stroke:#181818;stroke-width:1.0;"/><polygon fill="none" points="66.93,90.77,63.1638,96.9195,67.3917,102.7611,71.1579,96.6117,66.93,90.77" style="stroke:#181818;stroke-width:1.0;"/></g><!--MD5=[5b94dd299fdb64f5042d8ccdd246a8aa]
reverse link BaseClass to net.dummy.Meeting--><g id="link_BaseClass_net.dummy.Meeting"><path codeLine="13" d="M128.76,65 C122.5,65 116.23,65 109.97,65 " fill="none" id="BaseClass-backto-net.dummy.Meeting" style="stroke:#181818;stroke-width:1.0;"/><polygon fill="none" points="128.55,58,148.55,65,128.55,72,128.55,58" style="stroke:#181818;stroke-width:1.0;"/></g><!--MD5=[b57b6e1cdce0b532ba1371e9c7d07ce1]
reverse link net.dummy.Person to net.foo.Person--><g id="link_net.dummy.Person_net.foo.Person"><path codeLine="18" d="M130.97,173 C142.71,173 154.45,173 166.19,173 " fill="none" id="net.dummy.Person-backto-net.foo.Person" style="stroke:#181818;stroke-width:1.0;"/><polygon fill="none" points="131.36,180,111.36,173,131.36,166,131.36,180" style="stroke:#181818;stroke-width:1.0;"/></g><!--MD5=[3949315fc233572465e48cd9e3f6e864]
reverse link BaseClass to net.foo.Person--><g id="link_BaseClass_net.foo.Person"><path codeLine="19" d="M202.53,110.72 C203.27,123.82 204.05,137.62 204.69,148.79 " fill="none" id="BaseClass-backto-net.foo.Person" style="stroke:#181818;stroke-width:1.0;"/><polygon fill="none" points="195.54,111.14,201.4,90.77,209.52,110.35,195.54,111.14" style="stroke:#181818;stroke-width:1.0;"/></g><!--MD5=[736f19012fcb2f75c0b04526aeb93c2d]
reverse link net.dummy.Meeting to net.foo.Person--><g id="link_net.dummy.Meeting_net.foo.Person"><path codeLine="21" d="M113.9,97.3 C118.03,100.19 122.11,103.11 126,106 C144.21,119.53 163.88,135.73 179.15,148.69 " fill="none" id="net.dummy.Meeting-backto-net.foo.Person" style="stroke:#181818;stroke-width:1.0;"/><polygon fill="none" points="103.51,90.17,106.1961,96.8622,113.4066,96.9566,110.7205,90.2644,103.51,90.17" style="stroke:#181818;stroke-width:1.0;"/></g><!--MD5=[20bb99b6116bfc237a0342da45d84df8]
reverse link BaseClass to net.unused.Person--><g id="link_BaseClass_net.unused.Person"><path codeLine="24" d="M255.39,101.27 C257.64,102.84 259.85,104.43 262,106 C280.31,119.39 299.98,135.59 315.23,148.59 " fill="none" id="BaseClass-backto-net.unused.Person" style="stroke:#181818;stroke-width:1.0;"/><polygon fill="none" points="251.76,107.26,239.11,90.27,259.6,95.66,251.76,107.26" style="stroke:#181818;stroke-width:1.0;"/></g><!--MD5=[7b05dacbf8a30e18ae972be4bb8992d3]
@startuml
' Split into 4 pages
page 2x2
skinparam pageMargin 10
skinparam pageExternalColor gray
skinparam pageBorderColor black

class BaseClass

namespace net.dummy #DDDDDD {
	.BaseClass <|- - Person
	Meeting o- - Person
	
	.BaseClass <|- Meeting

}

namespace net.foo {
  net.dummy.Person  <|- Person
  .BaseClass <|- - Person

  net.dummy.Meeting o- - Person
}

BaseClass <|- - net.unused.Person
@enduml

@startuml
page 2x2
skinparam pageMargin 10
skinparam pageExternalColor gray
skinparam pageBorderColor black

class BaseClass

namespace net.dummy #DDDDDD {
	.BaseClass <|- - Person
	Meeting o- - Person
	
	.BaseClass <|- Meeting

}

namespace net.foo {
  net.dummy.Person  <|- Person
  .BaseClass <|- - Person

  net.dummy.Meeting o- - Person
}

BaseClass <|- - net.unused.Person
@enduml

PlantUML version 1.2022.3(Tue Mar 29 11:10:57 COT 2022)
(GPL source distribution)
Java Runtime: OpenJDK Runtime Environment
JVM: OpenJDK 64-Bit Server VM
Default Encoding: UTF-8
Language: en
Country: CO
--></g></svg>